<svg width="32" height="32" viewBox="0 0 32 32" fill="none" xmlns="http://www.w3.org/2000/svg">
<g clip-path="url(#clip0_119_204)">
<path d="M11.1475 1.0525C7.95019 2.16167 5.19284 4.26691 3.28046 7.059C1.36808 9.85109 0.401465 13.1829 0.522592 16.5649C0.643719 19.947 1.84621 23.201 3.95343 25.8492C6.06065 28.4973 8.96153 30.3999 12.23 31.2775C14.8798 31.9612 17.656 31.9913 20.32 31.365C22.7333 30.8229 24.9644 29.6634 26.795 28C28.7002 26.2159 30.0831 23.9462 30.795 21.435C31.5685 18.7041 31.7062 15.8323 31.1975 13.04H16.3175V19.2125H24.935C24.7628 20.197 24.3937 21.1366 23.8499 21.9751C23.306 22.8136 22.5986 23.5338 21.77 24.0925C20.7178 24.7888 19.5316 25.2572 18.2875 25.4675C17.0399 25.6995 15.7601 25.6995 14.5125 25.4675C13.2479 25.2063 12.0516 24.6844 11 23.935C9.31036 22.739 8.04168 21.0398 7.37499 19.08C6.69721 17.0835 6.69721 14.919 7.37499 12.9225C7.84955 11.523 8.63407 10.2488 9.66998 9.19499C10.8555 7.96686 12.3563 7.08899 14.0079 6.65769C15.6594 6.22638 17.3979 6.25832 19.0325 6.75C20.3095 7.1418 21.4772 7.82669 22.4425 8.75C23.4142 7.78333 24.3842 6.81416 25.3525 5.8425C25.8525 5.32 26.3975 4.82249 26.89 4.2875C25.4163 2.91629 23.6866 1.84926 21.8 1.1475C18.3642 -0.10003 14.6049 -0.133556 11.1475 1.0525Z" fill="white"/>
<path d="M11.1474 1.05249C14.6046 -0.134368 18.3639 -0.101725 21.7999 1.14499C23.6869 1.85152 25.4158 2.92369 26.8874 4.29999C26.3874 4.83499 25.8599 5.33499 25.3499 5.85499C24.3799 6.82332 23.4108 7.78832 22.4424 8.74999C21.4772 7.82668 20.3094 7.1418 19.0324 6.74999C17.3984 6.25659 15.66 6.22281 14.008 6.65235C12.356 7.08188 10.8542 7.95814 9.66744 9.18499C8.63153 10.2388 7.84701 11.513 7.37244 12.9125L2.18994 8.89999C4.04496 5.22139 7.25681 2.40755 11.1474 1.05249Z" fill="#E33629"/>
<path d="M0.81512 12.875C1.09347 11.4945 1.55593 10.1575 2.19012 8.90002L7.37262 12.9225C6.69484 14.9191 6.69484 17.0835 7.37262 19.08C5.64595 20.4134 3.91845 21.7534 2.19012 23.1C0.602996 19.9408 0.118951 16.3413 0.81512 12.875Z" fill="#F8BD00"/>
<path d="M16.3175 13.0375H31.1975C31.7062 15.8298 31.5686 18.7016 30.795 21.4325C30.0831 23.9437 28.7002 26.2133 26.795 27.9975C25.1225 26.6925 23.4425 25.3975 21.77 24.0925C22.5992 23.5332 23.3069 22.8122 23.8508 21.9728C24.3946 21.1334 24.7634 20.1928 24.935 19.2075H16.3175C16.315 17.1525 16.3175 15.095 16.3175 13.0375Z" fill="#587DBD"/>
<path d="M2.1875 23.1C3.91583 21.7666 5.64333 20.4266 7.37 19.08C8.03802 21.0405 9.30851 22.7397 11 23.935C12.0549 24.6809 13.2537 25.1986 14.52 25.455C15.7676 25.687 17.0474 25.687 18.295 25.455C19.5391 25.2447 20.7253 24.7763 21.7775 24.08C23.45 25.385 25.13 26.68 26.8025 27.985C24.9722 29.6493 22.741 30.8097 20.3275 31.3525C17.6635 31.9787 14.8873 31.9487 12.2375 31.265C10.1418 30.7054 8.18419 29.7189 6.4875 28.3675C4.69182 26.9415 3.22509 25.1448 2.1875 23.1Z" fill="#319F43"/>
</g>
<defs>
<clipPath id="clip0_119_204">
<rect width="32" height="32" fill="white"/>
</clipPath>
</defs>
</svg>
