<svg width="479" height="426" viewBox="0 0 479 426" fill="none" xmlns="http://www.w3.org/2000/svg">
<path d="M288.418 109.784C289.008 109.811 289.591 109.656 290.09 109.341C290.589 109.025 290.979 108.563 291.206 108.018C291.434 107.473 291.489 106.872 291.363 106.295C291.238 105.717 290.938 105.193 290.505 104.792C290.432 104.503 290.38 104.296 290.307 104.007C290.333 103.945 290.359 103.882 290.386 103.819C293.036 97.4963 302.02 97.5399 304.648 103.872C306.981 109.492 309.951 115.122 310.682 121.064C311.004 123.691 310.868 126.354 310.281 128.934C315.759 116.978 318.605 103.984 318.623 90.832C318.624 87.5317 318.441 84.2339 318.074 80.954C317.771 78.2652 317.35 75.5955 316.812 72.945C313.875 58.5636 307.57 45.084 298.415 33.6134C293.983 31.1948 290.4 27.4755 288.147 22.9567C287.331 21.3323 286.754 19.5983 286.434 17.8086C286.934 17.8742 288.319 10.2587 287.942 9.79142C288.639 8.73398 289.885 8.20833 290.646 7.17647C294.43 2.04463 299.643 2.94069 302.365 9.91444C308.178 12.8496 308.235 17.7175 304.667 22.3992C302.398 25.3778 302.086 29.4081 300.095 32.5969C300.3 32.8592 300.513 33.1133 300.717 33.3757C304.462 38.1929 307.726 43.3657 310.463 48.8199C309.689 42.7707 310.832 35.483 312.78 30.7853C314.998 25.4327 319.155 20.9248 322.816 16.2975C327.214 10.7394 336.231 13.1651 337.006 20.2108C337.014 20.279 337.021 20.3472 337.028 20.4154C336.484 20.7223 335.952 21.048 335.431 21.3926C334.777 21.8299 334.27 22.4547 333.977 23.1851C333.683 23.9156 333.618 24.7176 333.788 25.4861C333.958 26.2546 334.356 26.9538 334.931 27.492C335.505 28.0302 336.228 28.3823 337.006 28.5023L337.085 28.5145C336.892 30.4751 336.549 32.418 336.061 34.3266C340.758 52.496 330.618 59.1137 316.14 59.411C315.82 59.5749 315.509 59.7388 315.189 59.8946C317.938 67.6881 319.663 75.8061 320.319 84.0444C320.691 88.9048 320.669 93.7873 320.254 98.6442L320.278 98.4721C321.327 93.0713 324.207 88.1982 328.432 84.6757C334.707 79.5194 343.572 77.6207 350.341 73.476C353.6 71.4809 357.775 74.0592 357.206 77.8383C357.197 77.8986 357.188 77.959 357.179 78.0193C356.17 78.4305 355.187 78.9041 354.237 79.4374C353.693 79.7444 353.161 80.0701 352.64 80.4146C351.986 80.8519 351.479 81.4767 351.186 82.2072C350.892 82.9376 350.826 83.7397 350.997 84.5082C351.167 85.2767 351.565 85.9759 352.139 86.5141C352.714 87.0523 353.437 87.4044 354.215 87.5243L354.294 87.5366C354.352 87.5448 354.401 87.553 354.458 87.5613C352.734 91.6795 350.314 95.4702 347.304 98.7672C344.368 114.628 331.754 116.133 318.262 111.514H318.254C316.774 117.949 314.629 124.213 311.854 130.205H288.991C288.909 129.95 288.835 129.688 288.761 129.434C290.878 129.567 293.002 129.44 295.088 129.057C293.391 126.975 291.695 124.876 289.999 122.794C289.961 122.755 289.925 122.714 289.892 122.671C289.032 121.605 288.163 120.548 287.303 119.482L287.302 119.481C287.256 116.214 287.631 112.955 288.417 109.785L288.418 109.784Z" fill="white"/>
<path d="M361.824 51.2523C357.573 35.7477 391.861 22.4522 400.865 34.9381C402.117 33.163 406.744 32.0847 408.867 32.6293C410.99 33.1738 412.775 34.5351 414.517 35.8529C416.912 37.6934 419.394 39.5993 420.864 42.2457C422.345 44.8812 422.573 48.4752 420.581 50.7622C419.002 52.5809 414.343 53.7571 411.969 54.2363C410.315 54.5739 408.921 54.8462 407.724 55.0422C406.636 53.4745 406.135 51.5736 406.308 49.6731C405.502 50.2171 404.826 50.9327 404.329 51.7687C403.833 52.6047 403.527 53.5404 403.434 54.5086C403.401 54.9115 416.814 104.279 416.814 104.279C415.202 105.196 413.507 105.958 411.752 106.555C408.278 101.245 405.618 95.4448 403.859 89.3477C403.454 93.4247 403.505 97.534 404.011 101.6C404.28 103.879 404.665 106.144 405.165 108.385C389.227 111.826 365.254 110.693 354.824 96.0564C354.822 95.9958 354.821 95.9352 354.819 95.8746C354.811 95.2968 354.602 94.7399 354.229 94.2991C353.855 93.8584 353.34 93.5612 352.772 93.4586C352.203 93.3559 351.617 93.4542 351.113 93.7365C350.609 94.0188 350.219 94.4676 350.009 95.006C349.756 95.6518 349.523 96.2107 349.315 96.6553C346.278 85.7865 350.208 73.2078 361.824 51.2523Z" fill="#2F2E41"/>
<path d="M334.702 311.192V311.7C334.682 311.531 334.682 311.36 334.702 311.192Z" fill="#2F2E41"/>
<path d="M350.311 223.446C350.716 223.337 351.128 223.256 351.545 223.206C351.067 223.284 350.655 223.364 350.311 223.446Z" fill="#2F2E41"/>
<path d="M349.949 223.538C350.059 223.508 350.181 223.477 350.311 223.446C350.19 223.478 350.074 223.501 349.949 223.538Z" fill="#2F2E41"/>
<path d="M465.266 361.998H406.844C406.01 361.332 405.431 360.4 405.203 359.358C404.976 358.316 405.113 357.227 405.593 356.275C407.189 352.613 404.062 349.267 404.062 349.267C403 348.023 402.262 346.536 401.913 344.938C401.563 343.339 401.614 341.68 402.059 340.106C403.607 334.698 397.541 319.433 397.541 319.433C397.541 319.433 394.271 339.143 390.264 361.998H334.702C333.771 360.412 333.281 358.606 333.281 356.767C333.281 354.928 333.771 353.122 334.702 351.536C337.94 346.044 334.702 344.991 334.702 344.991C334.702 344.991 331.464 338.845 334.702 334.383C337.94 329.92 334.702 311.7 334.702 311.7C334.824 312.505 335.747 311.04 337.167 307.969C339.329 303.297 342.633 294.894 345.972 285.139C348.358 278.177 350.765 270.517 352.775 263.027H352.78C353.308 261.06 353.807 259.11 354.279 257.178C355.201 253.389 355.992 249.708 356.592 246.251C357.895 238.806 358.325 232.41 357.324 228.25C356.495 224.788 354.679 222.879 351.546 223.206C353.225 222.928 355.684 222.664 358.715 222.415C359.262 222.372 359.828 222.328 360.414 222.279C383.021 220.57 431.526 219.589 431.526 219.589L446.382 246.202L465.198 279.915C465.198 279.915 464.685 325.141 465.266 361.998Z" fill="#2F2E41"/>
<path d="M402.908 104.559L368.68 97.2954L361.883 110.98L338.997 124.235C338.997 124.235 353.749 184.575 353.665 193.062C353.452 214.608 318.989 262.908 345.02 259.192C371.051 255.477 376.338 239.913 384.695 242.374C392.232 244.593 401.434 254.467 407.595 247.405C413.756 240.344 415.926 248.498 419.821 248.78C421.673 248.914 420.558 239.863 425.216 249.061C429.874 258.259 454.575 245.877 446.203 237.503C432.26 223.555 429.426 120.738 429.426 120.738L413.905 115.96L402.908 104.559Z" fill="white"/>
<path d="M338.35 323.69C339.725 322.049 340.406 319.937 340.248 317.802C340.09 315.666 339.105 313.677 337.503 312.257C337.173 311.974 336.82 311.718 336.448 311.493L342.171 283.396L328.941 275.475L325.261 314.812C324.446 316.428 324.19 318.269 324.532 320.047C324.874 321.825 325.794 323.439 327.149 324.639C327.927 325.314 328.83 325.829 329.807 326.155C330.784 326.481 331.815 326.611 332.842 326.538C333.869 326.465 334.872 326.191 335.793 325.73C336.714 325.27 337.536 324.633 338.211 323.855C338.258 323.8 338.304 323.745 338.35 323.69Z" fill="#A0616A"/>
<path d="M379.429 175.588C379.346 174.685 378.194 174.275 376.598 173.709C374.995 173.215 373.471 172.493 372.074 171.565C368.54 169.012 369.931 166.341 371.854 162.65C372.23 161.932 372.62 161.185 372.986 160.409C374.075 158.11 372.342 148.623 367.827 132.209C366.436 127.155 366.441 123.586 365.48 121.218C364.523 118.85 362.605 117.683 357.378 117.439C351.06 117.12 344.873 119.32 340.173 123.557C340.046 123.669 339.915 123.791 339.788 123.908C339.549 124.133 339.314 124.363 339.085 124.597C334.739 128.97 332.252 134.856 332.145 141.021L332.12 142.071L331.042 192.223L328.011 236.233L323.833 296.857L326.927 297.008L339.275 297.624L340.774 297.697L344.327 282.786L348.602 264.843L350.174 258.252L355.05 237.805L357.324 228.25L358.715 222.415L359.281 220.033L362.044 208.452C362.107 208.208 368.462 183.127 375.788 178.933C378.521 177.371 379.507 176.462 379.429 175.588Z" fill="white"/>
<path d="M461.626 323.391C460.082 321.908 459.178 319.881 459.106 317.741C459.034 315.601 459.799 313.517 461.239 311.934C461.537 311.616 461.861 311.324 462.207 311.06L453.5 283.741L465.804 274.444L473.686 313.158C474.669 314.678 475.121 316.481 474.972 318.285C474.823 320.089 474.082 321.793 472.863 323.131C472.162 323.886 471.32 324.495 470.384 324.924C469.447 325.353 468.436 325.593 467.407 325.631C466.378 325.669 465.351 325.504 464.386 325.145C463.421 324.786 462.536 324.241 461.781 323.54C461.729 323.491 461.677 323.441 461.626 323.391Z" fill="#A0616A"/>
<path d="M467.644 264.111C467.644 264.111 458.049 230.338 460.975 226.681C463.901 223.025 455.259 222.311 458.983 215.502C462.707 208.693 457.567 207.554 457.567 207.554L454.777 191.899L449.79 153.444L449.639 152.3L448.188 141.113C447.783 137.917 446.738 134.837 445.115 132.054C443.493 129.272 441.326 126.846 438.744 124.921C438.613 124.82 438.478 124.723 438.343 124.626C437.729 124.184 437.102 123.774 436.461 123.397C431.674 120.572 426.053 119.503 420.563 120.376C410.22 121.987 413.44 125.846 411.762 136.182C409.036 152.989 408.329 162.605 409.658 164.777C410.106 165.509 410.576 166.209 411.025 166.881C413.334 170.349 415.004 172.85 411.763 175.774C410.471 176.843 409.034 177.722 407.495 178.386C405.972 179.124 404.869 179.654 404.884 180.561C404.901 181.439 405.978 182.233 408.861 183.491C412.355 185.021 416.108 190.803 419.181 196.711C421.62 201.472 423.795 206.364 425.697 211.365L452.114 285.69L456.423 297.811L457.909 297.576L470.116 295.64L473.177 295.155L467.644 264.111Z" fill="white"/>
<path d="M388.467 96.7821C403.89 96.7821 416.393 84.2752 416.393 68.8471C416.393 53.419 403.89 40.9121 388.467 40.9121C373.045 40.9121 360.542 53.419 360.542 68.8471C360.542 84.2752 373.045 96.7821 388.467 96.7821Z" fill="#A0616A"/>
<path d="M346.583 53.4305C342.332 37.9259 376.619 24.6304 385.623 37.1162C386.875 35.3411 391.502 34.2629 393.625 34.8074C395.748 35.352 397.533 36.7133 399.275 38.0311C401.67 39.8716 404.153 41.7775 405.622 44.4239C407.103 47.0594 407.331 50.6534 405.339 52.9404C403.761 54.7591 399.101 55.9353 396.728 56.4145C395.073 56.7521 393.679 57.0244 392.482 57.2204C391.394 55.6526 390.893 53.7518 391.066 51.8513C390.26 52.3952 389.585 53.1109 389.088 53.9469C388.591 54.7829 388.285 55.7185 388.192 56.6867C388.16 57.0897 401.572 106.457 401.572 106.457C399.961 107.374 398.266 108.137 396.51 108.733C393.037 103.423 390.376 97.623 388.617 91.5259C388.213 95.6028 388.264 99.7122 388.769 103.778C389.038 106.058 389.423 108.322 389.923 110.563C373.985 114.004 350.012 112.872 339.582 98.2345C339.581 98.174 339.579 98.1134 339.577 98.0527C339.569 97.475 339.36 96.918 338.987 96.4773C338.613 96.0365 338.098 95.7394 337.53 95.6368C336.961 95.5341 336.375 95.6324 335.871 95.9147C335.367 96.197 334.977 96.6458 334.767 97.1842C334.514 97.83 334.281 98.3889 334.074 98.8335C331.036 87.9646 334.966 75.3859 346.583 53.4305Z" fill="#2F2E41"/>
<path d="M208.09 149.958C207.5 149.985 206.916 149.83 206.418 149.514C205.919 149.198 205.529 148.737 205.301 148.192C205.074 147.647 205.019 147.045 205.144 146.468C205.27 145.891 205.57 145.367 206.003 144.966C206.076 144.677 206.128 144.47 206.201 144.181C206.175 144.118 206.148 144.056 206.122 143.993C203.471 137.67 194.488 137.714 191.86 144.046C189.527 149.666 186.557 155.296 185.826 161.238C185.504 163.865 185.64 166.528 186.227 169.108C180.748 157.152 177.903 144.158 177.885 131.006C177.884 127.706 178.067 124.408 178.434 121.128C178.737 118.439 179.158 115.769 179.696 113.119C182.633 98.7374 188.938 85.2579 198.093 73.7873C202.524 71.3686 206.108 67.6493 208.361 63.1305C209.177 61.5062 209.754 59.7722 210.074 57.9825C209.574 58.048 208.189 50.4325 208.566 49.9653C207.869 48.9078 206.623 48.3822 205.862 47.3503C202.078 42.2185 196.865 43.1145 194.143 50.0883C188.33 53.0235 188.273 57.8913 191.841 62.573C194.11 65.5516 194.422 69.5819 196.413 72.7707C196.208 73.033 195.995 73.2872 195.79 73.5495C192.045 78.3668 188.781 83.5396 186.045 88.9937C186.819 82.9445 185.676 75.6569 183.728 70.9591C181.51 65.6066 177.353 61.0986 173.691 56.4713C169.294 50.9133 160.277 53.3389 159.502 60.3847C159.494 60.4529 159.487 60.5211 159.48 60.5892C160.024 60.8961 160.556 61.2218 161.077 61.5664C161.731 62.0037 162.238 62.6285 162.531 63.359C162.824 64.0894 162.89 64.8914 162.72 65.6599C162.55 66.4285 162.152 67.1276 161.577 67.6658C161.003 68.204 160.28 68.5562 159.502 68.6761L159.422 68.6884C159.616 70.6489 159.959 72.5918 160.447 74.5004C155.75 92.6698 165.89 99.2875 180.368 99.5848C180.688 99.7487 180.999 99.9127 181.319 100.068C178.57 107.862 176.845 115.98 176.189 124.218C175.817 129.079 175.839 133.961 176.254 138.818L176.23 138.646C175.181 133.245 172.301 128.372 168.076 124.849C161.801 119.693 152.936 117.794 146.167 113.65C142.908 111.655 138.733 114.233 139.301 118.012C139.311 118.072 139.32 118.133 139.329 118.193C140.338 118.604 141.321 119.078 142.271 119.611C142.815 119.918 143.347 120.244 143.868 120.588C144.522 121.026 145.029 121.651 145.322 122.381C145.616 123.111 145.681 123.913 145.511 124.682C145.341 125.451 144.943 126.15 144.369 126.688C143.794 127.226 143.071 127.578 142.293 127.698L142.214 127.71C142.156 127.719 142.107 127.727 142.05 127.735C143.774 131.853 146.194 135.644 149.204 138.941C152.14 154.802 164.753 156.307 178.246 151.688H178.254C179.734 158.123 181.879 164.387 184.654 170.378H207.517C207.599 170.124 207.673 169.862 207.746 169.608C205.63 169.741 203.506 169.614 201.42 169.231C203.116 167.149 204.813 165.05 206.509 162.968C206.547 162.929 206.582 162.888 206.616 162.845C207.476 161.779 208.345 160.722 209.205 159.656L209.206 159.655C209.251 156.388 208.877 153.129 208.091 149.958L208.09 149.958Z" fill="white"/>
<path d="M101.409 34.9387C100.89 36.1483 84.8899 36.0187 84.1571 37.0959C78.5072 45.4119 98.874 80.7944 93.2241 89.1213L92.437 90.0596C94.2803 89.2099 96.0509 88.2106 97.7311 87.0719C97.8821 83.6636 98.0331 80.2444 98.1947 76.836C99.887 79.0016 101.253 81.4037 102.249 83.9655C103.564 83.038 104.643 81.3184 110.282 77.9362C112.564 75.4278 115.196 73.261 118.095 71.5021L101.409 34.9387Z" fill="#2F2E41"/>
<path d="M113.027 103.093C111.262 101.942 109.247 101.23 107.151 101.014C105.055 100.798 102.938 101.085 100.975 101.852C99.0118 102.619 97.2599 103.843 95.8645 105.422C94.4692 107.002 93.4704 108.891 92.9513 110.934L68.6371 174.309L26.8438 150.574C26.6603 147.845 25.6178 145.245 23.8658 143.146C22.1138 141.048 19.7423 139.558 17.0915 138.89C14.4407 138.223 11.6468 138.413 9.11037 139.432C6.57398 140.452 4.42546 142.248 2.97295 144.565C1.52045 146.881 0.838598 149.598 1.02518 152.326C1.21177 155.054 2.25721 157.653 4.01157 159.75C5.76592 161.847 8.13905 163.334 10.7906 163.998C13.4422 164.662 16.2359 164.47 18.7711 163.447C27.5725 172.844 65.7293 211.371 81.526 196.318C94.8039 183.665 113.965 134.626 118.578 117.692C119.317 114.984 119.178 112.112 118.18 109.488C117.183 106.864 115.378 104.625 113.027 103.093Z" fill="#FFB6B6"/>
<path d="M67.3718 198.973L75.0446 233.665L131.151 238.742L136.307 208.535L67.3718 198.973Z" fill="#FFB6B6"/>
<path d="M153.075 287.937C153.049 288.434 153.019 288.926 152.983 289.424C152.445 296.612 151.83 304.902 151.163 313.988C150.113 328.405 148.939 344.822 147.755 361.998H30.0718L52.8952 293.373C52.8952 293.373 62.1108 288.298 57.419 279.771C52.7272 271.245 61.9589 278.04 62.0448 265.863C62.1307 253.686 70.4032 240.731 70.4032 240.731L71.7614 222.294L72.5353 222.31L133.778 223.33L134.895 223.35L136.776 239.178C148.197 252.773 154.024 270.204 153.075 287.937Z" fill="#2F2E41"/>
<path d="M102.39 86.2802L130.316 84.8411L143.288 105.344C143.288 105.344 167.693 109.426 166.002 138.195C164.31 166.964 136.307 192.209 136.307 192.209L137.504 188.104L135.425 194.046L135.692 197.383L138.528 200.916L138.82 204.571L136.307 210.352C136.634 210.876 136.807 211.481 136.808 212.099C136.808 212.717 136.635 213.322 136.309 213.846C135.983 214.371 135.517 214.793 134.963 215.066C134.409 215.338 133.79 215.45 133.176 215.388L92.8237 211.343C91.905 208.815 91.1679 205.79 87.4853 210.826L83.6841 210.457L67.8824 208.926L66.9523 205.537C66.4238 203.611 66.3415 201.59 66.7115 199.627C67.0815 197.665 67.8942 195.813 69.0876 194.212C67.7151 189.912 68.0746 185.247 70.0896 181.209L70.1651 181.057L71.8432 179.658C71.8432 179.658 53.4846 152.067 74.5597 131.286L83.0183 116.902L92.4827 105.351L102.39 86.2802Z" fill="white"/>
<path d="M109.34 74.1772C123.966 74.1772 135.822 62.3166 135.822 47.6858C135.822 33.055 123.966 21.1944 109.34 21.1944C94.7144 21.1944 82.8579 33.055 82.8579 47.6858C82.8579 62.3166 94.7144 74.1772 109.34 74.1772Z" fill="#FFB6B6"/>
<path d="M129.453 85.8486C127.297 84.046 125.796 81.5814 125.184 78.8377C124.694 82.169 124.822 85.5621 125.561 88.847C124.127 89.9256 122.736 90.9503 121.421 91.8779C120.425 89.316 119.059 86.914 117.367 84.7484C117.205 88.1567 117.054 91.5759 116.903 94.9843C115.223 96.123 113.452 97.1222 111.609 97.972L112.396 97.0336C118.046 88.7068 103.425 73.38 109.075 65.0639C110.66 62.7341 103.501 44.3225 98.0447 43.492C93.1927 42.7585 93.3976 44.1607 88.6965 45.1854C88.2083 43.1486 87.4504 41.1862 86.443 39.3501C86.7112 41.3961 86.6493 43.4718 86.2597 45.4981C84.5885 45.5629 83.2736 44.4976 81.494 44.2254C70.1402 42.4889 71.2939 30.2037 74.4531 26.3099C77.6231 22.427 88.1466 21.2621 92.9986 20.0001C93.4407 19.5687 94.4434 19.8383 94.8855 19.4284C104.184 10.9156 116.62 9.50576 127.812 13.2789C139.747 17.3026 147.188 25.0903 151.007 37.0959L152.103 46.7035C153.085 49.7926 151.849 64.1661 151.007 67.2967C147.735 79.4654 140.765 73.3907 129.453 85.8486Z" fill="#2F2E41"/>
<path d="M168.067 211.358L167.025 130.132C166.97 126.691 165.566 123.409 163.114 120.995C160.662 118.58 157.359 117.227 153.919 117.227H153.919C152.139 117.227 150.378 117.59 148.743 118.293C147.108 118.996 145.633 120.025 144.408 121.317C143.184 122.609 142.235 124.136 141.62 125.807C141.004 127.478 140.736 129.256 140.83 131.034L144.499 215.375L144.569 266.718C142.406 267.635 140.579 269.196 139.334 271.188C138.09 273.181 137.488 275.508 137.612 277.855C137.736 280.201 138.579 282.452 140.026 284.302C141.473 286.153 143.455 287.513 145.702 288.197C147.949 288.882 150.352 288.858 152.584 288.128C154.817 287.399 156.771 286 158.181 284.121C159.591 282.242 160.389 279.975 160.466 277.626C160.543 275.278 159.895 272.963 158.611 270.996L168.067 211.358Z" fill="#FFB6B6"/>
<path d="M304.745 316.445C304.745 316.445 303.133 345.455 302.392 362H246.88C245.738 346.943 245.353 335.881 245.353 335.881L242.316 362H186.205L182.726 313.627L199.537 271.943C199.537 271.943 290.638 265.623 299.088 273.64C307.533 281.653 304.745 316.445 304.745 316.445Z" fill="#2F2E41"/>
<path d="M255.657 72.4107C272.403 72.4107 285.979 58.8305 285.979 42.0784C285.979 25.3264 272.403 11.7462 255.657 11.7462C238.911 11.7462 225.335 25.3264 225.335 42.0784C225.335 58.8305 238.911 72.4107 255.657 72.4107Z" fill="#FFB6B6"/>
<path d="M291 32.2223C287.885 33.6429 285.867 43.9318 283.419 41.5398C280.972 39.1479 281.135 36.0351 277.835 35.1524C275.169 34.4365 272.301 35.2547 269.87 36.545C269.436 36.7727 269.015 37.0203 268.605 37.2665C268.334 37.0856 268.065 36.9153 267.776 36.7582C265.601 35.5941 263.063 35.3086 260.685 35.9603C262.564 36.5901 264.198 37.795 265.356 39.4046C264.542 39.95 263.718 40.4969 262.875 40.9814C255.833 45.0467 245.812 36.2068 238.4 32.8859C243.043 41.6019 240.757 45.2116 236.725 54.2258L236.586 54.7391C236.815 52.4799 229.826 50.7962 230.232 53.9765C230.519 56.2345 232.473 61.2535 233.567 63.2471C225.773 54.2325 220.447 43.2011 221.571 31.8213C221.816 29.4308 221.742 26.9085 222.975 24.8336C224.209 22.7695 226.781 21.321 229.057 22.1081C228.864 18.479 229.658 14.8654 231.354 11.6515C233.05 8.43766 235.585 5.74366 238.69 3.85594C241.794 1.96821 245.352 0.957314 248.985 0.930715C252.618 0.904115 256.19 1.86281 259.322 3.70488C262.232 5.41303 264.661 7.82891 267.329 9.91279C269.996 11.9967 273.07 13.8131 276.452 13.9851C278.598 14.0886 280.933 13.5647 282.776 14.6763C284.911 15.9661 285.277 18.6667 285.597 21.2653C283.693 21.4531 281.888 22.2046 280.412 23.4239C282.383 23.2228 284.366 23.6485 286.081 24.6403C286.114 24.655 286.145 24.6727 286.174 24.6931C287.303 28.9877 287.187 29.9397 291 32.2223Z" fill="#2F2E41"/>
<path d="M186.34 286.618C212.161 256.383 203.439 217.926 193.191 179.106L195.141 121.758C195.237 118.944 196.008 116.196 197.389 113.743C198.77 111.291 200.721 109.207 203.076 107.667L229.437 90.4402L239.697 75.6008L267.979 78.43L283.662 95.0212L301.021 108.278C305.38 111.607 308.696 116.113 310.58 121.265C312.463 126.417 312.835 132 311.651 137.356L295.038 212.51C295.038 212.51 301.986 251.47 297.747 255.773C293.507 260.076 282.583 255.775 291.246 260.605C301.642 266.402 311.095 265.332 305.834 270.595C300.573 275.858 307.231 283.175 307.231 283.175L186.34 286.618Z" fill="white"/>
<path d="M197.38 330.56L201.684 299.88L184.508 294.975L181.11 327.573C179.689 328.877 178.659 330.552 178.137 332.409C177.614 334.266 177.62 336.232 178.154 338.086C178.687 339.94 179.727 341.609 181.157 342.904C182.586 344.199 184.349 345.07 186.245 345.418C188.142 345.766 190.099 345.578 191.895 344.875C193.691 344.172 195.255 342.981 196.412 341.438C197.569 339.894 198.272 338.058 198.443 336.136C198.614 334.215 198.246 332.283 197.38 330.56Z" fill="#FFB6B6"/>
<path d="M230.081 95.9706C230.081 95.9706 181.189 111.889 180.023 123.536C178.857 135.183 179.244 142.314 174.083 188.921L174.355 314.468C174.355 314.468 207.135 321.489 203.773 313.983C200.411 306.476 201.584 302.945 201.584 302.945C201.584 302.945 208.612 300.17 206.853 291.357C205.094 282.543 213.916 238.866 213.916 238.866L219.485 160.534L230.081 95.9706Z" fill="white"/>
<path d="M290.367 328.935L288.076 298.039L305.536 294.268L306.796 327.019C308.13 328.413 309.048 330.151 309.448 332.038C309.847 333.926 309.713 335.887 309.059 337.702C308.406 339.518 307.259 341.114 305.748 342.313C304.237 343.512 302.422 344.266 300.506 344.489C298.59 344.713 296.65 344.397 294.904 343.578C293.158 342.759 291.675 341.469 290.621 339.853C289.568 338.237 288.986 336.359 288.941 334.43C288.896 332.501 289.39 330.598 290.367 328.935H290.367Z" fill="#FFB6B6"/>
<path d="M273.063 92.7093C273.063 92.7093 320.811 111.791 321.213 123.489C321.616 135.188 320.764 142.277 322.868 189.122L314.393 314.384C314.393 314.384 281.225 319.246 285.07 311.975C288.915 304.705 287.975 301.104 287.975 301.104C287.975 301.104 281.143 297.876 283.475 289.197C285.806 280.517 279.857 236.357 279.857 236.357L279.419 157.827L273.063 92.7093Z" fill="white"/>
<g filter="url(#filter0_f_114_54)">
<ellipse cx="243.5" cy="404.5" rx="222.5" ry="8.5" fill="#132A47" fill-opacity="0.2"/>
</g>
<defs>
<filter id="filter0_f_114_54" x="8" y="383" width="471" height="43" filterUnits="userSpaceOnUse" color-interpolation-filters="sRGB">
<feFlood flood-opacity="0" result="BackgroundImageFix"/>
<feBlend mode="normal" in="SourceGraphic" in2="BackgroundImageFix" result="shape"/>
<feGaussianBlur stdDeviation="6.5" result="effect1_foregroundBlur_114_54"/>
</filter>
</defs>
</svg>
